<svg xmlns="http://www.w3.org/2000/svg" width="1800" height="1120" viewBox="0 0 1800 1120" role="img" aria-labelledby="title desc">
  <title id="title">ADZU QASMO Energy Crisis Learning Continuity Dashboard ERD</title>
  <desc id="desc">Project-specific entity relationship and workflow diagram for the ADZU QASMO dashboard.</desc>
  <defs>
    <style>
      .bg{fill:#f5f8fb}.ink{fill:#223438}.muted{fill:#637783}.blue{fill:#073f8f}.cyan{fill:#19bceb}.gold{fill:#ffc107}
      .card{fill:#fff;stroke:#d7dde4;stroke-width:2}.shadow{filter:url(#shadow)}
      .head{fill:#073f8f}.head2{fill:#223438}.head3{fill:#19bceb}.head4{fill:#ffc107}
      .label{font:700 18px "Segoe UI",Arial,sans-serif;fill:#fff}.title{font:800 28px "Segoe UI",Arial,sans-serif;fill:#073f8f}
      .subtitle{font:600 18px "Segoe UI",Arial,sans-serif;fill:#223438}.small{font:500 15px "Segoe UI",Arial,sans-serif;fill:#223438}
      .tiny{font:500 13px "Segoe UI",Arial,sans-serif;fill:#223438}.tiny-muted{font:500 13px "Segoe UI",Arial,sans-serif;fill:#637783}
      .field{font:500 14px "Segoe UI",Arial,sans-serif;fill:#223438}.pk{font:800 13px "Segoe UI",Arial,sans-serif;fill:#073f8f}.fk{font:800 13px "Segoe UI",Arial,sans-serif;fill:#0b7f95}
      .line{stroke:#65727c;stroke-width:2;fill:none}.dash{stroke:#65727c;stroke-width:2;stroke-dasharray:7 7;fill:none}
      .moduleHead{font:800 17px "Segoe UI",Arial,sans-serif;fill:#073f8f}.moduleText{font:600 13px "Segoe UI",Arial,sans-serif;fill:#223438}
      .pillText{font:800 14px "Segoe UI",Arial,sans-serif;fill:#fff}.white{fill:#fff}
    </style>
    <filter id="shadow" x="-10%" y="-10%" width="120%" height="130%">
      <feDropShadow dx="0" dy="8" stdDeviation="10" flood-color="#0a2030" flood-opacity=".10"/>
    </filter>
    <marker id="arrow" markerWidth="10" markerHeight="10" refX="8" refY="3" orient="auto" markerUnits="strokeWidth">
      <path d="M0,0 L0,6 L9,3 z" fill="#65727c"/>
    </marker>
    <marker id="crow" markerWidth="18" markerHeight="18" refX="16" refY="9" orient="auto" markerUnits="strokeWidth">
      <path d="M2,2 L16,9 L2,16 M16,9 L2,9" stroke="#65727c" stroke-width="2" fill="none"/>
    </marker>
  </defs>

  <rect class="bg" width="1800" height="1120"/>
  <path d="M0 0h1800v86H0z" fill="#fff"/>
  <path d="M0 86h1800" stroke="#d7dde4" stroke-width="2"/>

  <g transform="translate(36 18)">
    <circle cx="36" cy="36" r="34" fill="#073f8f"/>
    <circle cx="36" cy="36" r="26" fill="#fff"/>
    <path d="M36 11l7 17 18 2-14 12 4 18-15-9-15 9 4-18-14-12 18-2z" fill="#ffc107"/>
    <circle cx="36" cy="36" r="12" fill="#073f8f"/>
    <text x="36" y="41" text-anchor="middle" font-family="Segoe UI,Arial" font-size="11" font-weight="800" fill="#fff">ADZU</text>
  </g>
  <text x="92" y="35" class="title">ADZU QASMO Energy Crisis Learning Continuity Dashboard</text>
  <text x="92" y="62" class="subtitle">Entity Relationship Diagram and Report Review Workflow</text>
  <text x="1690" y="35" text-anchor="end" class="tiny-muted">Laravel Blade + MySQL</text>
  <text x="1690" y="60" text-anchor="end" class="tiny-muted">Prepared for QASMO</text>

  <g class="shadow">
    <rect x="36" y="118" width="312" height="306" rx="8" class="card"/>
    <rect x="36" y="118" width="312" height="46" rx="8" fill="#073f8f"/>
    <text x="58" y="148" class="label">System Overview</text>
    <text x="58" y="194" class="small">Monthly institutional reporting for energy</text>
    <text x="58" y="218" class="small">continuity, savings, service volume, and</text>
    <text x="58" y="242" class="small">fuel monitoring.</text>
    <text x="58" y="286" class="small">Admin users review submitted records,</text>
    <text x="58" y="310" class="small">send revision notes, approve reports,</text>
    <text x="58" y="334" class="small">and export dashboard summaries.</text>
    <text x="58" y="382" class="tiny-muted">Source tables shown below match current</text>
    <text x="58" y="402" class="tiny-muted">migrations in this project.</text>

    <rect x="36" y="452" width="312" height="214" rx="8" class="card"/>
    <rect x="36" y="452" width="312" height="46" rx="8" fill="#223438"/>
    <text x="58" y="482" class="label">Core Roles</text>
    <circle cx="72" cy="535" r="18" fill="#073f8f"/>
    <text x="104" y="540" class="small" font-weight="800">Admin</text>
    <text x="58" y="574" class="tiny">Reviews all module reports</text>
    <text x="58" y="596" class="tiny">Approves or returns records</text>
    <text x="58" y="618" class="tiny">Exports reports and views charts</text>
    <circle cx="72" cy="641" r="18" fill="#0a7d24"/>
    <text x="104" y="646" class="small" font-weight="800">Respondent</text>

    <rect x="36" y="696" width="312" height="224" rx="8" class="card"/>
    <rect x="36" y="696" width="312" height="46" rx="8" fill="#ffc107"/>
    <text x="58" y="726" class="label" fill="#223438">Legend</text>
    <text x="58" y="780" class="pk">PK</text><text x="98" y="780" class="tiny">Primary key</text>
    <text x="58" y="812" class="fk">FK</text><text x="98" y="812" class="tiny">Foreign key</text>
    <line x1="58" y1="848" x2="142" y2="848" class="line" marker-end="url(#crow)"/>
    <text x="160" y="853" class="tiny">One user owns many records</text>
    <line x1="58" y1="884" x2="142" y2="884" class="dash" marker-end="url(#arrow)"/>
    <text x="160" y="889" class="tiny">Workflow action</text>
  </g>

  <g class="shadow" transform="translate(420 126)">
    <rect width="250" height="244" rx="8" class="card"/>
    <rect width="250" height="46" rx="8" class="head"/>
    <text x="125" y="30" text-anchor="middle" class="label">users</text>
    <text x="22" y="74" class="pk">PK</text><text x="58" y="74" class="field">id</text>
    <text x="22" y="104" class="field">name</text>
    <text x="22" y="134" class="field">email</text><text x="134" y="134" class="tiny-muted">unique</text>
    <text x="22" y="164" class="field">password</text>
    <text x="22" y="194" class="field">role</text><text x="86" y="194" class="tiny-muted">admin/respondent</text>
    <text x="22" y="224" class="field">created_at / updated_at</text>
  </g>

  <g class="shadow" transform="translate(748 126)">
    <rect width="300" height="250" rx="8" class="card"/>
    <rect width="300" height="46" rx="8" class="head2"/>
    <text x="150" y="30" text-anchor="middle" class="label">report_reviews</text>
    <text x="22" y="74" class="pk">PK</text><text x="58" y="74" class="field">id</text>
    <text x="22" y="104" class="field">module_key / module_label</text>
    <text x="22" y="134" class="field">reportable_type / reportable_id</text>
    <text x="22" y="164" class="fk">FK</text><text x="58" y="164" class="field">respondent_id</text>
    <text x="22" y="194" class="field">status</text><text x="96" y="194" class="tiny-muted">pending/approved/revision</text>
    <text x="22" y="224" class="fk">FK</text><text x="58" y="224" class="field">reviewed_by</text>
  </g>

  <g class="shadow" transform="translate(1126 126)">
    <rect width="286" height="220" rx="8" class="card"/>
    <rect width="286" height="46" rx="8" class="head3"/>
    <text x="143" y="30" text-anchor="middle" class="label">report_notifications</text>
    <text x="22" y="74" class="pk">PK</text><text x="58" y="74" class="field">id</text>
    <text x="22" y="104" class="fk">FK</text><text x="58" y="104" class="field">user_id</text>
    <text x="22" y="134" class="fk">FK</text><text x="58" y="134" class="field">report_review_id</text>
    <text x="22" y="164" class="field">type / message</text>
    <text x="22" y="194" class="field">read_at / timestamps</text>
  </g>

  <g class="shadow" transform="translate(1480 118)">
    <rect width="284" height="348" rx="8" class="card"/>
    <rect width="284" height="46" rx="8" class="head"/>
    <text x="142" y="30" text-anchor="middle" class="label">Report Workflow</text>
    <rect x="26" y="74" width="232" height="50" rx="6" fill="#eef7fb" stroke="#b5dce8"/>
    <text x="52" y="105" class="small" font-weight="800">1. Respondent drafts</text>
    <rect x="26" y="146" width="232" height="50" rx="6" fill="#fff8e3" stroke="#efd27a"/>
    <text x="52" y="177" class="small" font-weight="800">2. Submits report</text>
    <rect x="26" y="218" width="232" height="50" rx="6" fill="#edf3ff" stroke="#b9cdf4"/>
    <text x="52" y="249" class="small" font-weight="800">3. Admin reviews</text>
    <rect x="26" y="290" width="108" height="40" rx="6" fill="#eaf8ee" stroke="#9ed9ad"/>
    <text x="80" y="315" text-anchor="middle" class="tiny">Approve</text>
    <rect x="150" y="290" width="108" height="40" rx="6" fill="#fff0f0" stroke="#e6b0b0"/>
    <text x="204" y="315" text-anchor="middle" class="tiny">Return</text>
    <path d="M142 124v22M142 196v22M142 268v22M204 330v18c0 14-12 24-26 24H72c-14 0-26-10-26-24V124" class="dash" marker-end="url(#arrow)"/>
  </g>

  <line x1="670" y1="248" x2="748" y2="248" class="line" marker-end="url(#crow)"/>
  <line x1="1048" y1="248" x2="1126" y2="248" class="line" marker-end="url(#crow)"/>
  <path d="M1412 248h44c24 0 24 36 24 36" class="dash" marker-end="url(#arrow)"/>

  <text x="1014" y="446" text-anchor="middle" class="title" font-size="24">Reporting Modules</text>
  <path d="M545 470h960" class="line"/>
  <path d="M545 470v50M705 470v50M865 470v50M1025 470v50M1185 470v50M1345 470v50M1505 470v50" class="line"/>
  <path d="M545 370v100" class="line" marker-start="url(#crow)"/>

  <g class="shadow" transform="translate(396 520)">
    <rect width="258" height="270" rx="8" class="card"/>
    <rect width="258" height="54" rx="8" fill="#fff7e6" stroke="#f2ae3a"/>
    <circle cx="28" cy="27" r="15" fill="#d47900"/><text x="28" y="33" text-anchor="middle" class="pillText">1</text>
    <text x="58" y="23" class="moduleHead" fill="#b65e00">fuel_prices</text>
    <text x="58" y="43" class="moduleText">Weekly fuel pump prices</text>
    <text x="20" y="84" class="pk">PK</text><text x="56" y="84" class="field">id</text>
    <text x="20" y="114" class="fk">FK</text><text x="56" y="114" class="field">user_id</text>
    <text x="20" y="144" class="field">respondent_name</text>
    <text x="20" y="174" class="field">reporting_month/year</text>
    <text x="20" y="204" class="field">week_number</text>
    <text x="20" y="234" class="field">Shell/Petron/Caltex prices</text>
  </g>

  <g class="shadow" transform="translate(694 520)">
    <rect width="258" height="270" rx="8" class="card"/>
    <rect width="258" height="54" rx="8" fill="#ecf7ff" stroke="#8ec7e7"/>
    <circle cx="28" cy="27" r="15" fill="#073f8f"/><text x="28" y="33" text-anchor="middle" class="pillText">2</text>
    <text x="58" y="23" class="moduleHead">electricity_consumptions</text>
    <text x="58" y="43" class="moduleText">Campus kWh by building</text>
    <text x="20" y="84" class="pk">PK</text><text x="56" y="84" class="field">id</text>
    <text x="20" y="114" class="fk">FK</text><text x="56" y="114" class="field">user_id</text>
    <text x="20" y="144" class="field">reporting_month/year</text>
    <text x="20" y="174" class="field">building kWh columns</text>
    <text x="20" y="204" class="field">remarks</text>
    <text x="20" y="234" class="field">created_at / updated_at</text>
  </g>

  <g class="shadow" transform="translate(992 520)">
    <rect width="258" height="270" rx="8" class="card"/>
    <rect width="258" height="54" rx="8" fill="#eff9ef" stroke="#94ce94"/>
    <circle cx="28" cy="27" r="15" fill="#0a7d24"/><text x="28" y="33" text-anchor="middle" class="pillText">3</text>
    <text x="58" y="23" class="moduleHead" fill="#0a7d24">fuel_vehicle_uses</text>
    <text x="58" y="43" class="moduleText">Fuel and vehicle use</text>
    <text x="20" y="84" class="pk">PK</text><text x="56" y="84" class="field">id</text>
    <text x="20" y="114" class="fk">FK</text><text x="56" y="114" class="field">user_id</text>
    <text x="20" y="144" class="field">reporting_month/year</text>
    <text x="20" y="174" class="field">total_fuel_cost_incurred</text>
    <text x="20" y="204" class="field">remarks</text>
    <text x="20" y="234" class="field">created_at / updated_at</text>
  </g>

  <g class="shadow" transform="translate(1238 520)">
    <rect width="258" height="270" rx="8" class="card"/>
    <rect width="258" height="54" rx="8" fill="#fff9db" stroke="#e8cf52"/>
    <circle cx="28" cy="27" r="15" fill="#e0a200"/><text x="28" y="33" text-anchor="middle" class="pillText">4</text>
    <text x="58" y="23" class="moduleHead" fill="#a87900">solar_performances</text>
    <text x="58" y="43" class="moduleText">Solar output and savings</text>
    <text x="20" y="84" class="pk">PK</text><text x="56" y="84" class="field">id</text>
    <text x="20" y="114" class="fk">FK</text><text x="56" y="114" class="field">user_id</text>
    <text x="20" y="144" class="field">solar_panel_id</text>
    <text x="20" y="174" class="field">monthly_solar_energy_kwh</text>
    <text x="20" y="204" class="field">estimated_savings</text>
    <text x="20" y="234" class="field">remarks</text>
  </g>

  <g class="shadow" transform="translate(545 826)">
    <rect width="258" height="230" rx="8" class="card"/>
    <rect width="258" height="54" rx="8" fill="#eef8fb" stroke="#8ccedc"/>
    <circle cx="28" cy="27" r="15" fill="#0b7f95"/><text x="28" y="33" text-anchor="middle" class="pillText">5</text>
    <text x="58" y="23" class="moduleHead" fill="#0b7186">student_service_volumes</text>
    <text x="58" y="43" class="moduleText">Transactions by office</text>
    <text x="20" y="84" class="pk">PK</text><text x="56" y="84" class="field">id</text>
    <text x="20" y="114" class="fk">FK</text><text x="56" y="114" class="field">user_id</text>
    <text x="20" y="144" class="field">office_unit_name</text>
    <text x="20" y="174" class="field">student_transactions_count</text>
    <text x="20" y="204" class="field">service_types / remarks</text>
  </g>

  <g class="shadow" transform="translate(843 826)">
    <rect width="258" height="230" rx="8" class="card"/>
    <rect width="258" height="54" rx="8" fill="#fff2e9" stroke="#f3a365"/>
    <circle cx="28" cy="27" r="15" fill="#df6c14"/><text x="28" y="33" text-anchor="middle" class="pillText">6</text>
    <text x="58" y="23" class="moduleHead" fill="#bd560b">estimated_savings</text>
    <text x="58" y="43" class="moduleText">Annual savings estimate</text>
    <text x="20" y="84" class="pk">PK</text><text x="56" y="84" class="field">id</text>
    <text x="20" y="114" class="fk">FK</text><text x="56" y="114" class="field">user_id</text>
    <text x="20" y="144" class="field">reporting_year</text>
    <text x="20" y="174" class="field">savings_areas</text>
    <text x="20" y="204" class="field">total_estimated_savings</text>
  </g>

  <g class="shadow" transform="translate(1141 826)">
    <rect width="258" height="230" rx="8" class="card"/>
    <rect width="258" height="54" rx="8" fill="#f2f4f7" stroke="#c7d0da"/>
    <text x="129" y="34" text-anchor="middle" class="label" fill="#223438">report_logs</text>
    <text x="20" y="84" class="pk">PK</text><text x="56" y="84" class="field">id</text>
    <text x="20" y="114" class="fk">FK</text><text x="56" y="114" class="field">user_id nullable</text>
    <text x="20" y="144" class="field">module</text>
    <text x="20" y="174" class="field">filters JSON</text>
    <text x="20" y="204" class="field">export_type / generated_at</text>
  </g>

  <g class="shadow" transform="translate(1506 520)">
    <rect width="284" height="310" rx="8" class="card"/>
    <rect width="284" height="46" rx="8" fill="#073f8f"/>
    <text x="142" y="30" text-anchor="middle" class="label">Dashboard Outputs</text>
    <text x="24" y="84" class="small" font-weight="800">Admin analytics</text>
    <text x="24" y="114" class="tiny">Institution summaries and charts</text>
    <text x="24" y="154" class="small" font-weight="800">Respondent scope</text>
    <text x="24" y="184" class="tiny">Own records and review status</text>
    <text x="24" y="224" class="small" font-weight="800">Exports</text>
    <text x="24" y="254" class="tiny">Printable report layout</text>
    <text x="24" y="282" class="tiny">CSV download from reports page</text>
  </g>

  <path d="M545 790v36M823 790v36M1101 790v36M1379 790v36" class="line"/>
  <path d="M420 248H374c-30 0-30 682 171 682" class="line" marker-end="url(#crow)"/>
  <path d="M670 248c60 0 60 40 60 90v150" class="line" marker-end="url(#crow)"/>
  <path d="M1048 360c70 82 140 102 258 128" class="dash" marker-end="url(#arrow)"/>
  <path d="M1399 930h100c28 0 28-60 28-100" class="dash" marker-end="url(#arrow)"/>

  <text x="1016" y="1092" text-anchor="middle" class="tiny-muted">Records are owned by users through user_id. report_reviews attach polymorphically to submitted module records and drive notifications.</text>
</svg>
